<svg
  width="18"
  height="19"
  viewBox="0 0 18 19"
  fill="none"
  xmlns="http://www.w3.org/2000/svg"
>
<path
    d="M1 10.2203H7C7.26522 10.2203 7.51957 10.1132 7.70711 9.92248C7.89464 9.73176 8 9.4731 8 9.20338V1.06779C8 0.79808 7.89464 0.539415 7.70711 0.3487C7.51957 0.157985 7.26522 0.0508423 7 0.0508423H1C0.734784 0.0508423 0.48043 0.157985 0.292893 0.3487C0.105357 0.539415 0 0.79808 0 1.06779V9.20338C0 9.4731 0.105357 9.73176 0.292893 9.92248C0.48043 10.1132 0.734784 10.2203 1 10.2203ZM0 17.339C0 17.6087 0.105357 17.8674 0.292893 18.0581C0.48043 18.2488 0.734784 18.3559 1 18.3559H7C7.26522 18.3559 7.51957 18.2488 7.70711 18.0581C7.89464 17.8674 8 17.6087 8 17.339V13.2712C8 13.0015 7.89464 12.7428 7.70711 12.5521C7.51957 12.3614 7.26522 12.2542 7 12.2542H1C0.734784 12.2542 0.48043 12.3614 0.292893 12.5521C0.105357 12.7428 0 13.0015 0 13.2712V17.339ZM10 17.339C10 17.6087 10.1054 17.8674 10.2929 18.0581C10.4804 18.2488 10.7348 18.3559 11 18.3559H17C17.2652 18.3559 17.5196 18.2488 17.7071 18.0581C17.8946 17.8674 18 17.6087 18 17.339V10.2203C18 9.95062 17.8946 9.69196 17.7071 9.50124C17.5196 9.31053 17.2652 9.20338 17 9.20338H11C10.7348 9.20338 10.4804 9.31053 10.2929 9.50124C10.1054 9.69196 10 9.95062 10 10.2203V17.339ZM11 7.16949H17C17.2652 7.16949 17.5196 7.06234 17.7071 6.87163C17.8946 6.68091 18 6.42225 18 6.15254V1.06779C18 0.79808 17.8946 0.539415 17.7071 0.3487C17.5196 0.157985 17.2652 0.0508423 17 0.0508423H11C10.7348 0.0508423 10.4804 0.157985 10.2929 0.3487C10.1054 0.539415 10 0.79808 10 1.06779V6.15254C10 6.42225 10.1054 6.68091 10.2929 6.87163C10.4804 7.06234 10.7348 7.16949 11 7.16949Z"
    fill="white"
  />
</svg>
