<svg width="23" height="23" viewBox="0 0 23 23" fill="none" xmlns="http://www.w3.org/2000/svg">
<path d="M14.3746 12.458C13.8447 12.458 13.4163 12.8873 13.4163 13.4163V17.2495C13.4163 17.7775 12.987 18.2078 12.458 18.2078H9.58307V3.83323C9.58307 3.01483 9.06175 2.28365 8.27785 2.01149L7.9942 1.91661H12.458C12.987 1.91661 13.4163 2.34689 13.4163 2.87492V5.74984C13.4163 6.27883 13.8447 6.70815 14.3746 6.70815C14.9045 6.70815 15.3329 6.27883 15.3329 5.74984V2.87492C15.3329 1.28988 14.043 0 12.458 0H2.15619C2.11977 0 2.08911 0.0162912 2.05365 0.0210827C2.00765 0.0172495 1.96357 0 1.91661 0C0.859601 0 0 0.859601 0 1.91661V19.1661C0 19.9845 0.521319 20.7157 1.30521 20.9879L7.0723 22.9102C7.2678 22.9706 7.46234 22.9994 7.66645 22.9994C8.72347 22.9994 9.58307 22.1398 9.58307 21.0827V20.1244H12.458C14.043 20.1244 15.3329 18.8346 15.3329 17.2495V13.4163C15.3329 12.8873 14.9045 12.458 14.3746 12.458Z" fill="#374EF4"/>
<path d="M22.7186 8.9057L18.8854 5.07247C18.6113 4.79839 18.1992 4.71598 17.8408 4.86452C17.4834 5.01305 17.2495 5.36284 17.2495 5.74999V8.62491H13.4163C12.8873 8.62491 12.458 9.05423 12.458 9.58322C12.458 10.1122 12.8873 10.5415 13.4163 10.5415H17.2495V13.4164C17.2495 13.8036 17.4834 14.1534 17.8408 14.3019C18.1992 14.4505 18.6113 14.368 18.8854 14.094L22.7186 10.2607C23.0933 9.88604 23.0933 9.28039 22.7186 8.9057Z" fill="#374EF4"/>
</svg>
