<svg
  width="20"
  height="21"
  viewBox="0 0 20 21"
  fill="none"
  xmlns="http://www.w3.org/2000/svg"
>
<path
    d="M19.8942 8.32L19.1042 5.8C19.0189 5.50876 18.8758 5.23767 18.6835 5.00292C18.4911 4.76817 18.2535 4.57456 17.9847 4.43364C17.7159 4.29272 17.4215 4.20737 17.1191 4.1827C16.8166 4.15802 16.5122 4.19451 16.2242 4.29L15.8842 4.4C15.6178 4.48805 15.3341 4.51039 15.0573 4.46511C14.7804 4.41984 14.5186 4.3083 14.2942 4.14L14.1842 4.06C13.9652 3.89237 13.7886 3.67562 13.6688 3.42723C13.5489 3.17884 13.4891 2.90575 13.4942 2.63V2.35C13.4991 1.72202 13.2545 1.11779 12.8142 0.67C12.6048 0.458452 12.3556 0.290362 12.081 0.175383C11.8064 0.0604042 11.5119 0.000802192 11.2142 0H8.66419C8.05236 0.00790627 7.46843 0.257192 7.03953 0.693583C6.61064 1.12997 6.3715 1.71813 6.37419 2.33V2.57C6.37322 2.86027 6.30714 3.14663 6.1808 3.40796C6.05446 3.6693 5.87108 3.89895 5.64419 4.08L5.51419 4.18C5.26353 4.36962 4.97035 4.49516 4.66014 4.5457C4.34993 4.59624 4.03207 4.57025 3.73419 4.47C3.4606 4.37533 3.17065 4.33715 2.88188 4.35777C2.59312 4.3784 2.31154 4.4574 2.05419 4.59C1.78624 4.72299 1.54853 4.90969 1.35585 5.1385C1.16316 5.36731 1.01963 5.63333 0.934185 5.92L0.114185 8.52C-0.0759726 9.1062 -0.0272063 9.74374 0.249894 10.2942C0.526995 10.8447 1.01006 11.2636 1.59419 11.46H1.75419C2.02364 11.561 2.26549 11.7241 2.46009 11.9361C2.65469 12.148 2.79656 12.4029 2.87419 12.68L2.93419 12.84C3.04566 13.1461 3.08294 13.4743 3.04296 13.7977C3.00298 14.121 2.88687 14.4302 2.70419 14.7C2.3344 15.2036 2.17843 15.8328 2.27019 16.4508C2.36195 17.0688 2.69403 17.6256 3.19419 18L5.26419 19.57C5.65614 19.855 6.12962 20.0058 6.61418 20C6.74387 20.0127 6.8745 20.0127 7.00419 20C7.30429 19.9419 7.58941 19.8233 7.84215 19.6514C8.09488 19.4794 8.30994 19.2578 8.47419 19L8.70419 18.67C8.86553 18.4386 9.07901 18.2483 9.3274 18.1145C9.5758 17.9808 9.85216 17.9073 10.1342 17.9C10.4297 17.8927 10.7223 17.9604 10.9846 18.0968C11.2469 18.2332 11.4704 18.4339 11.6342 18.68L11.7542 18.85C11.9247 19.1037 12.1453 19.3199 12.4025 19.4852C12.6597 19.6504 12.948 19.7613 13.2496 19.8109C13.5513 19.8606 13.8599 19.848 14.1565 19.7739C14.4531 19.6997 14.7314 19.5657 14.9742 19.38L17.0042 17.86C17.4842 17.4872 17.8033 16.945 17.8963 16.3444C17.9893 15.7438 17.849 15.1304 17.5042 14.63L17.2442 14.25C17.0878 14.0084 16.9855 13.736 16.944 13.4512C16.9026 13.1664 16.9231 12.8761 17.0042 12.6C17.0868 12.3044 17.2401 12.0334 17.451 11.8104C17.6618 11.5874 17.9237 11.4191 18.2142 11.32L18.4142 11.25C18.9929 11.0492 19.4709 10.6312 19.747 10.0845C20.0232 9.53769 20.076 8.90496 19.8942 8.32ZM10.0042 13.5C9.31195 13.5 8.63526 13.2947 8.05969 12.9101C7.48412 12.5256 7.03551 11.9789 6.77061 11.3394C6.5057 10.6999 6.43639 9.99612 6.57144 9.31718C6.70648 8.63825 7.03983 8.01461 7.52931 7.52513C8.0188 7.03564 8.64244 6.7023 9.32137 6.56725C10.0003 6.4322 10.704 6.50151 11.3436 6.76642C11.9831 7.03133 12.5297 7.47993 12.9143 8.0555C13.2989 8.63108 13.5042 9.30777 13.5042 10C13.5042 10.9283 13.1354 11.8185 12.4791 12.4749C11.8227 13.1313 10.9324 13.5 10.0042 13.5Z"
    fill="white"
  />
</svg>
