<svg width="53" height="53" viewBox="0 0 53 53" fill="none" xmlns="http://www.w3.org/2000/svg">
<circle cx="26.5" cy="26.5" r="26.5" fill="#D8DDFD"/>
<g clip-path="url(#clip0_1061_25191)">
<path d="M26.9867 13C30.6998 12.9965 34.2621 14.4681 36.8901 17.0911C39.5181 19.7141 40.9964 23.2737 40.9999 26.9867C41.0035 30.6998 39.5318 34.2621 36.9088 36.8901C34.2858 39.5181 30.7262 40.9964 27.0132 41C23.3001 41.0035 19.7378 39.5318 17.1098 36.9088C14.4818 34.2858 13.0035 30.7262 13 27.0132C12.9964 23.3002 14.4681 19.7378 17.0911 17.1098C19.7141 14.4818 23.2737 13.0035 26.9867 13ZM20.8741 26.1307C20.6421 26.131 20.4196 26.2234 20.2556 26.3876C20.0917 26.5519 19.9997 26.7745 20 27.0066C20.0002 27.2386 20.0926 27.4611 20.2568 27.6251C20.4211 27.789 20.6437 27.881 20.8758 27.8807L31.0135 27.8712L27.2598 31.6302C27.0957 31.7947 27.0036 32.0176 27.0038 32.25C27.004 32.4823 27.0965 32.7051 27.261 32.8692C27.4255 33.0334 27.6484 33.1255 27.8807 33.1252C28.1131 33.125 28.3358 33.0325 28.5 32.868L33.745 27.6131C33.8264 27.5317 33.891 27.4351 33.935 27.3288C33.979 27.2224 34.0016 27.1084 34.0015 26.9933C34.0014 26.8783 33.9786 26.7643 33.9344 26.6581C33.8902 26.5518 33.8254 26.4553 33.7439 26.3741L28.4889 21.1291C28.3244 20.9649 28.1015 20.8728 27.8692 20.873C27.6368 20.8733 27.4141 20.9658 27.2499 21.1302C27.0858 21.2947 26.9937 21.5176 26.9939 21.75C26.9941 21.9823 27.0866 22.2051 27.2511 22.3692L31.0119 26.1212L20.8741 26.1307Z" fill="#2F41C5"/>
</g>
<defs>
<clipPath id="clip0_1061_25191">
<rect width="28" height="28" fill="white" transform="translate(13.0132 41.0132) rotate(-90.0541)"/>
</clipPath>
</defs>
</svg>
