<svg width="53" height="53" viewBox="0 0 53 53" fill="none" xmlns="http://www.w3.org/2000/svg">
<circle cx="26.5" cy="26.5" r="26.5" fill="#DDE0F9"/>
<path d="M13.1027 26.205C13.0755 22.492 14.5243 18.9203 17.1305 16.2757C19.7367 13.631 23.2867 12.1299 26.9997 12.1027C30.7126 12.0754 34.2843 13.5243 36.929 16.1305C39.5736 18.7367 41.0747 22.2867 41.1019 25.9996C41.1292 29.7126 39.6803 33.2842 37.0741 35.9289C34.4679 38.5736 30.9179 40.0747 27.205 40.1019C23.492 40.1291 19.9204 38.6803 17.2757 36.0741C14.631 33.4679 13.1299 29.9179 13.1027 26.205ZM26.2722 32.2335C26.2739 32.4656 26.3678 32.6875 26.5331 32.8504C26.6984 33.0133 26.9216 33.1038 27.1536 33.1021C27.3857 33.1004 27.6076 33.0066 27.7705 32.8413C27.9333 32.676 28.0239 32.4528 28.0222 32.2207L27.9479 22.0832L31.7308 25.8129C31.8963 25.9759 32.1198 26.0666 32.3522 26.0649C32.5845 26.0632 32.8067 25.9693 32.9698 25.8038C33.1329 25.6383 33.2235 25.4148 33.2218 25.1824C33.2201 24.9501 33.1262 24.7279 32.9607 24.5648L27.6723 19.3534C27.5905 19.2726 27.4934 19.2086 27.3868 19.1653C27.2802 19.1219 27.1661 19.1001 27.051 19.1009C26.9359 19.1018 26.8221 19.1253 26.7161 19.1702C26.6101 19.2151 26.5141 19.2804 26.4334 19.3625L21.222 24.6509C21.0589 24.8164 20.9683 25.0399 20.97 25.2722C20.9717 25.5046 21.0656 25.7268 21.2311 25.8898C21.3966 26.0529 21.6201 26.1436 21.8525 26.1419C22.0848 26.1402 22.307 26.0463 22.4701 25.8808L26.1979 22.0961L26.2722 32.2335Z" fill="#1A277E"/>
</svg>
