<svg width="53" height="53" viewBox="0 0 53 53" fill="none" xmlns="http://www.w3.org/2000/svg">
<circle cx="26.5" cy="26.5" r="26.5" fill="#F1E4FF"/>
<path d="M41 27C41 30.713 39.525 34.274 36.8995 36.8995C34.274 39.525 30.713 41 27 41C23.287 41 19.726 39.525 17.1005 36.8995C14.475 34.274 13 30.713 13 27C13 23.287 14.475 19.726 17.1005 17.1005C19.726 14.475 23.287 13 27 13C30.713 13 34.274 14.475 36.8995 17.1005C39.525 19.726 41 23.287 41 27ZM27.875 20.875C27.875 20.6429 27.7828 20.4204 27.6187 20.2563C27.4546 20.0922 27.2321 20 27 20C26.7679 20 26.5454 20.0922 26.3813 20.2563C26.2172 20.4204 26.125 20.6429 26.125 20.875V31.0128L22.3695 27.2555C22.2052 27.0912 21.9824 26.9989 21.75 26.9989C21.5176 26.9989 21.2948 27.0912 21.1305 27.2555C20.9662 27.4198 20.8739 27.6426 20.8739 27.875C20.8739 28.1074 20.9662 28.3302 21.1305 28.4945L26.3805 33.7445C26.4618 33.826 26.5583 33.8906 26.6646 33.9347C26.7709 33.9789 26.8849 34.0016 27 34.0016C27.1151 34.0016 27.2291 33.9789 27.3354 33.9347C27.4417 33.8906 27.5382 33.826 27.6195 33.7445L32.8695 28.4945C33.0338 28.3302 33.1261 28.1074 33.1261 27.875C33.1261 27.6426 33.0338 27.4198 32.8695 27.2555C32.7052 27.0912 32.4824 26.9989 32.25 26.9989C32.0176 26.9989 31.7948 27.0912 31.6305 27.2555L27.875 31.0128V20.875Z" fill="#7445C7"/>
</svg>
