<svg width="58" height="58" viewBox="0 0 58 58" fill="none" xmlns="http://www.w3.org/2000/svg">
<circle cx="29" cy="29" r="29" fill="#DEF4E8"/>
<path d="M20 30H38V38.002C38 38.553 37.555 39 37.007 39H20.993C20.8623 38.9997 20.7328 38.9737 20.6122 38.9234C20.4915 38.8731 20.3819 38.7995 20.2897 38.7068C20.1974 38.6141 20.1244 38.5042 20.0747 38.3832C20.025 38.2623 19.9996 38.1327 20 38.002V30ZM20 19.998C20 19.447 20.445 19 20.993 19H37.007C37.555 19 38 19.446 38 19.998V28H20V19.998ZM26 22V24H32V22H26ZM26 33V35H32V33H26Z" fill="#186F3D"/>
</svg>
