<svg width="104" height="102" viewBox="0 0 104 102" fill="none" xmlns="http://www.w3.org/2000/svg">
<path d="M34.926 5.58327L31.4221 0H0.618752V5.58327V7.59274V100.124H91.8906V5.58327H34.926Z" fill="#CCCCCC"/>
<path d="M91.0578 8.13965H1.56016V98.1015H91.0578V8.13965Z" fill="white"/>
<path opacity="0.17" d="M91.6683 7.37018H88.7686V98.7882H91.6683V7.37018Z" fill="#999999"/>
<path opacity="0.17" d="M91.6683 62.8403H88.7686V98.0442H91.6683V62.8403Z" fill="#999999"/>
<path d="M91.223 6.9187H1.06401V11.8279H91.223V6.9187Z" fill="#B1BAFB" stroke="#CCCCCC" stroke-miterlimit="10"/>
<path d="M91.0578 8.13965H1.56016V98.1015H91.0578V8.13965Z" stroke="#CCCCCC" stroke-linecap="round" stroke-linejoin="round"/>
<g opacity="0.17">
<path opacity="0.17" d="M66.6959 16.5654H57.9522C57.7481 16.5654 57.5524 16.4843 57.4081 16.34C57.2638 16.1957 57.1827 16 57.1827 15.7959C57.1827 15.5919 57.2638 15.3962 57.4081 15.2519C57.5524 15.1076 57.7481 15.0265 57.9522 15.0265H66.6959C66.9005 15.0265 67.0969 15.1073 67.2422 15.2515C67.3875 15.3956 67.47 15.5913 67.4717 15.7959C67.47 16.0006 67.3875 16.1963 67.2422 16.3404C67.0969 16.4845 66.9005 16.5654 66.6959 16.5654Z" fill="#999999"/>
<path opacity="0.17" d="M84.1705 16.5654H75.4458C75.2417 16.5654 75.046 16.4843 74.9017 16.34C74.7574 16.1957 74.6764 16 74.6764 15.7959C74.6764 15.5919 74.7574 15.3962 74.9017 15.2519C75.046 15.1076 75.2417 15.0265 75.4458 15.0265H84.1705C84.3751 15.0265 84.5715 15.1073 84.7168 15.2515C84.8621 15.3956 84.9446 15.5913 84.9463 15.7959C84.9446 16.0006 84.8621 16.1963 84.7168 16.3404C84.5715 16.4845 84.3751 16.5654 84.1705 16.5654Z" fill="#999999"/>
</g>
<path d="M17.6168 28.2916H6.47566V31.1404H17.6168V28.2916Z" fill="#B1BAFB"/>
<path d="M17.6168 31.5283H6.47566V34.3772H17.6168V31.5283Z" fill="#B1BAFB"/>
<path d="M20.0652 28.317H18.0938V34.3708H20.0652V28.317Z" fill="#B1BAFB"/>
<path d="M17.6168 41.1178H6.47566V43.9667H17.6168V41.1178Z" fill="#B1BAFB"/>
<path d="M17.6168 44.3546H6.47566V47.2034H17.6168V44.3546Z" fill="#B1BAFB"/>
<path d="M20.0652 41.1432H18.0938V47.197H20.0652V41.1432Z" fill="#B1BAFB"/>
<path d="M17.6168 53.9377H6.47566V56.7865H17.6168V53.9377Z" fill="#CCCCCC"/>
<path d="M17.6168 57.1744H6.47566V60.0233H17.6168V57.1744Z" fill="#CCCCCC"/>
<path d="M20.0652 53.9695H18.0938V60.0233H20.0652V53.9695Z" fill="#CCCCCC"/>
<path d="M17.6168 66.764H6.47566V69.6128H17.6168V66.764Z" fill="#CCCCCC"/>
<path d="M17.6168 70.0007H6.47566V72.8496H17.6168V70.0007Z" fill="#CCCCCC"/>
<path d="M20.0652 66.7894H18.0938V72.8432H20.0652V66.7894Z" fill="#CCCCCC"/>
<path d="M6.5264 37.385H85.1627" stroke="#CCCCCC" stroke-width="0.5" stroke-miterlimit="10"/>
<path d="M6.5264 50.4656H85.1627" stroke="#CCCCCC" stroke-width="0.5" stroke-miterlimit="10"/>
<path d="M6.5264 62.2617H85.1627" stroke="#CCCCCC" stroke-width="0.5" stroke-miterlimit="10"/>
<path d="M6.5264 76.1181H85.1627" stroke="#CCCCCC" stroke-width="0.5" stroke-miterlimit="10"/>
<g opacity="0.17">
<path opacity="0.17" d="M85.1377 101.58H76.3876C76.1836 101.58 75.9878 101.499 75.8435 101.354C75.6992 101.21 75.6182 101.014 75.6182 100.81C75.6182 100.606 75.699 100.409 75.8432 100.264C75.9873 100.119 76.183 100.036 76.3876 100.035H85.1377C85.3424 100.036 85.5381 100.119 85.6822 100.264C85.8263 100.409 85.9072 100.606 85.9072 100.81C85.9072 101.014 85.8261 101.21 85.6818 101.354C85.5375 101.499 85.3418 101.58 85.1377 101.58Z" fill="#999999"/>
<path opacity="0.17" d="M102.612 101.58H93.8808C93.6767 101.58 93.481 101.499 93.3367 101.354C93.1924 101.21 93.1113 101.014 93.1113 100.81C93.1113 100.606 93.1922 100.409 93.3363 100.264C93.4804 100.119 93.6761 100.036 93.8808 100.035H102.612C102.816 100.036 103.012 100.119 103.156 100.264C103.3 100.409 103.381 100.606 103.381 100.81C103.381 101.014 103.3 101.21 103.156 101.354C103.012 101.499 102.816 101.58 102.612 101.58Z" fill="#999999"/>
</g>
</svg>
