<svg width="58" height="58" viewBox="0 0 58 58" fill="none" xmlns="http://www.w3.org/2000/svg">
<circle cx="29" cy="29" r="29" fill="#E9F3FD"/>
<path d="M37.083 27.4999L38.285 28.2209C38.3591 28.2653 38.4205 28.3282 38.4631 28.4034C38.5058 28.4786 38.5282 28.5635 38.5282 28.6499C38.5282 28.7364 38.5058 28.8213 38.4631 28.8965C38.4205 28.9717 38.3591 29.0346 38.285 29.0789L29 34.6499L19.715 29.0789C19.6408 29.0346 19.5794 28.9717 19.5368 28.8965C19.4942 28.8213 19.4718 28.7364 19.4718 28.6499C19.4718 28.5635 19.4942 28.4786 19.5368 28.4034C19.5794 28.3282 19.6408 28.2653 19.715 28.2209L20.917 27.4999L29 32.3499L37.083 27.4999ZM37.083 32.1999L38.285 32.9209C38.3591 32.9653 38.4205 33.0282 38.4631 33.1034C38.5058 33.1786 38.5282 33.2635 38.5282 33.3499C38.5282 33.4364 38.5058 33.5213 38.4631 33.5965C38.4205 33.6717 38.3591 33.7346 38.285 33.7789L29.515 39.0409C29.3594 39.1344 29.1814 39.1838 29 39.1838C28.8185 39.1838 28.6405 39.1344 28.485 39.0409L19.715 33.7789C19.6408 33.7346 19.5794 33.6717 19.5368 33.5965C19.4942 33.5213 19.4718 33.4364 19.4718 33.3499C19.4718 33.2635 19.4942 33.1786 19.5368 33.1034C19.5794 33.0282 19.6408 32.9653 19.715 32.9209L20.917 32.1999L29 37.0499L37.083 32.1999ZM29.514 18.3089L38.285 23.5709C38.3591 23.6153 38.4205 23.6782 38.4631 23.7534C38.5058 23.8286 38.5282 23.9135 38.5282 23.9999C38.5282 24.0864 38.5058 24.1713 38.4631 24.2465C38.4205 24.3217 38.3591 24.3846 38.285 24.4289L29 29.9999L19.715 24.4289C19.6408 24.3846 19.5794 24.3217 19.5368 24.2465C19.4942 24.1713 19.4718 24.0864 19.4718 23.9999C19.4718 23.9135 19.4942 23.8286 19.5368 23.7534C19.5794 23.6782 19.6408 23.6153 19.715 23.5709L28.485 18.3089C28.6405 18.2155 28.8185 18.1661 29 18.1661C29.1814 18.1661 29.3594 18.2155 29.515 18.3089H29.514Z" fill="#2F41C5"/>
</svg>
