<svg width="89" height="83" viewBox="0 0 89 83" fill="none" xmlns="http://www.w3.org/2000/svg">
<g clip-path="url(#clip0_1093_26319)">
<path d="M85.2835 39.8665C82.8864 38.2722 80.4514 36.8422 77.915 35.4749C75.707 34.1839 73.2469 32.4885 70.7224 31.8159C69.3465 31.41 68.1948 33.3909 69.3552 34.3521C69.3552 34.3521 69.4182 34.4533 69.5193 34.3903C69.5061 34.8196 69.43 35.1479 69.3156 35.6401C69.2145 35.7031 69.0752 35.93 68.9741 35.993C68.8349 36.2201 68.7586 36.5483 68.6825 36.8767C61.3959 37.3467 54.2353 38.019 47.0381 37.7315C44.8916 37.6654 42.783 37.4352 40.6498 36.94C43.79 30.4916 46.479 21.5171 41.3978 15.8405C34.6522 8.39397 28.4892 18.5506 28.165 24.7881C27.6372 32.2754 30.6114 36.598 36.9221 38.8415C34.7445 43.0056 31.7849 46.8151 27.9178 48.9439C18.7306 54.2476 12.1742 47.1042 10.2785 38.8813C13.5372 38.2543 16.7591 36.6677 19.01 34.423C23.1319 30.4509 22.8422 20.5255 16.8597 18.3581C10.9403 16.2919 7.29863 29.3689 7.15472 32.9676C7.09021 33.9903 7.08886 35.1141 7.18844 36.1749C7.02434 36.1368 6.92307 36.1999 6.75913 36.1617C-3.41834 36.047 -0.992954 25.9736 2.39931 19.9297C2.95613 19.0213 1.5554 18.3501 0.935578 19.1575C-2.9739 24.8219 -6.28129 33.4798 1.32748 37.5813C3.18241 38.5308 5.31576 39.0261 7.50042 38.9281C8.74117 45.8748 12.7733 52.3456 20.3484 53.2395C29.4386 54.3124 35.4348 46.3655 39.2828 39.4761C39.4468 39.5141 39.4468 39.5141 39.611 39.5523C48.7627 41.8502 58.8538 40.4748 68.1991 39.7045C68.1345 40.7272 68.1331 41.8512 68.0685 42.8738C68.0803 43.5684 68.6224 44.2132 69.2787 44.3654C74.5433 45.1554 80.0745 44.7967 85.0652 42.6694C86.3662 42.2798 86.4821 40.6638 85.2835 39.8665ZM34.7305 34.8736C30.1122 32.4177 30.448 26.8748 31.3127 22.4059C32.4192 16.523 38.6099 14.069 41.0886 20.525C42.309 23.835 41.1293 27.7984 40.2031 31.0424C39.721 32.7465 39.0369 34.5766 38.1885 36.3685C36.9766 36.0008 35.8029 35.4687 34.7305 34.8736ZM9.90363 36.0272C9.90363 36.0272 9.84063 35.9261 9.90363 36.0272C9.61789 32.4155 10.3801 29.1333 11.8995 25.9407C12.5707 24.54 13.4059 23.1774 14.5312 22.0551C17.3388 18.902 19.022 25.4326 19.1963 27.2891C19.4672 32.454 14.4252 35.1747 9.90363 36.0272ZM71.1513 41.5143C71.0883 41.4132 71.1894 41.3502 71.1264 41.2491C71.4297 41.0601 71.6069 40.6687 71.5572 40.1384C71.4195 39.2417 71.3829 38.282 71.3462 37.3221C71.3594 36.8928 71.588 35.9082 71.3858 36.0342C71.4869 35.9712 71.525 35.807 71.462 35.7059C72.7616 36.4399 74.2635 37.0482 75.563 37.7822C77.2538 38.6936 79.0077 39.7062 80.7616 40.7189C77.7932 41.5865 74.4466 41.8472 71.1513 41.5143Z" fill="white"/>
</g>
<defs>
<clipPath id="clip0_1093_26319">
<rect width="71.5026" height="71.5028" fill="white" transform="translate(50.6851 -16) rotate(58.0718)"/>
</clipPath>
</defs>
</svg>
