<svg width="58" height="58" viewBox="0 0 58 58" fill="none" xmlns="http://www.w3.org/2000/svg">
<circle cx="29" cy="29" r="29" fill="#F4F0FA"/>
<path d="M29 22V36H36V22H29ZM21 20H37C37.2652 20 37.5196 20.1054 37.7071 20.2929C37.8946 20.4804 38 20.7348 38 21V37C38 37.2652 37.8946 37.5196 37.7071 37.7071C37.5196 37.8946 37.2652 38 37 38H21C20.7348 38 20.4804 37.8946 20.2929 37.7071C20.1054 37.5196 20 37.2652 20 37V21C20 20.7348 20.1054 20.4804 20.2929 20.2929C20.4804 20.1054 20.7348 20 21 20Z" fill="#7445C7"/>
</svg>
