<svg width="68" height="65" viewBox="0 0 68 65" fill="none" xmlns="http://www.w3.org/2000/svg">
<path d="M67.5322 62.5311C66.4867 59.8488 65.3157 57.2791 64.0258 54.7025C62.9607 52.3771 61.9218 49.5759 60.2423 47.5746C59.3496 46.4518 57.2686 47.411 57.6659 48.8645C57.6659 48.8645 57.6593 48.9835 57.7783 48.99C57.5208 49.3338 57.2698 49.5588 56.8933 49.8958C56.7744 49.8893 56.5299 49.9949 56.411 49.9884C56.1666 50.0942 55.9156 50.319 55.6646 50.544C49.4313 46.7412 43.1849 43.1763 37.4601 38.8049C35.7414 37.5173 34.1481 36.117 32.6869 34.4859C38.9625 31.0134 46.3207 25.2141 45.4246 17.6485C44.1835 7.67781 33.303 12.4479 29.4531 17.3663C24.7183 23.1904 24.6683 28.4371 28.5434 33.8998C24.3684 36.0562 19.757 37.473 15.3689 36.9927C4.80232 36.0534 3.54187 26.4396 6.7161 18.6207C9.74325 19.9804 13.2918 20.5335 16.4239 19.99C22.0798 19.1081 27.5467 10.8189 23.8963 5.60718C20.2394 0.514428 9.74405 9.12355 7.55817 11.9859C6.91763 12.7858 6.27074 13.7047 5.74259 14.6301C5.63019 14.5046 5.51106 14.498 5.39884 14.3726C-2.86423 8.42986 4.90963 1.5799 11.1591 -1.41683C12.1369 -1.84026 11.3762 -3.19448 10.405 -2.89C3.95037 -0.501086 -3.73187 4.68363 0.137903 12.4128C1.11025 14.2559 2.57147 15.8873 4.41571 17.0625C1.43896 23.4606 1.02012 31.0733 6.70565 36.1582C13.5283 42.2602 23.0024 39.2025 30.1107 35.7758C30.2231 35.9011 30.2231 35.9011 30.3355 36.0268C36.5045 43.1666 45.5532 47.8402 53.6438 52.5804C53.0033 53.3803 52.3562 54.2993 51.7157 55.099C51.3261 55.6743 51.3992 56.5135 51.8489 57.0152C55.7032 60.6872 60.4361 63.5723 65.7428 64.6994C67.0314 65.1282 68.0549 63.8724 67.5322 62.5311ZM29.0302 29.3931C26.662 24.7292 30.1223 20.386 33.3981 17.2256C37.6844 13.0471 44.161 14.5965 42.4794 21.3044C41.5759 24.7146 38.3328 27.2802 35.7106 29.4028C34.3367 30.5202 32.7252 31.6248 31.001 32.6037C30.2206 31.6063 29.5658 30.4964 29.0302 29.3931ZM8.04952 16.0696C8.04952 16.0696 8.05607 15.9506 8.04952 16.0696C9.89127 12.9496 12.4013 10.7016 15.4794 8.96208C16.8336 8.20144 18.3003 7.5663 19.8662 7.29453C23.9758 6.32758 21.6003 12.6394 20.6761 14.2588C17.9295 18.6414 12.2398 17.9704 8.04952 16.0696ZM55.0198 55.758C55.0263 55.6391 55.1453 55.6456 55.1518 55.5267C55.5087 55.5463 55.8786 55.3279 56.1427 54.8654C56.5453 54.0524 57.0669 53.2459 57.5885 52.4393C57.846 52.0955 58.599 51.4211 58.3611 51.408C58.48 51.4146 58.6055 51.3022 58.6121 51.1832C59.2538 52.5307 60.1333 53.8917 60.775 55.2391C61.635 56.9567 62.4884 58.7933 63.3418 60.63C60.4139 59.6342 57.5253 57.9243 55.0198 55.758Z" fill="#FFD233"/>
</svg>
