<svg width="59" height="50" viewBox="0 0 59 50" fill="none" xmlns="http://www.w3.org/2000/svg">
<path d="M50.4339 26.9938H45.8755C46.3401 28.2659 46.594 29.6387 46.594 31.0696V48.2977C46.594 48.8942 46.4901 49.4669 46.3012 49.9994H53.8372C56.6523 49.9994 58.9425 47.7092 58.9425 44.8942V35.5024C58.9426 30.8108 55.1256 26.9938 50.4339 26.9938Z" fill="#3B4EF2"/>
<path d="M12.3486 31.0696C12.3486 29.6386 12.6025 28.2659 13.0671 26.9938H8.5087C3.817 26.9938 0 30.8108 0 35.5025V44.8943C0 47.7093 2.29013 49.9995 5.10522 49.9995H12.6414C12.4524 49.4667 12.3486 48.8942 12.3486 48.2977V31.0696Z" fill="#3B4EF2"/>
<path d="M34.682 22.5615H24.2609C19.5692 22.5615 15.7522 26.3785 15.7522 31.0702V48.2983C15.7522 49.238 16.5141 50 17.4539 50H41.489C42.4288 50 43.1907 49.2382 43.1907 48.2983V31.0702C43.1907 26.3785 39.3737 22.5615 34.682 22.5615Z" fill="#3B4EF2"/>
<path d="M29.4712 3.05176e-05C23.8288 3.05176e-05 19.2384 4.59042 19.2384 10.2329C19.2384 14.0602 21.3508 17.4027 24.4704 19.1577C25.95 19.99 27.6559 20.4657 29.4712 20.4657C31.2864 20.4657 32.9923 19.99 34.472 19.1577C37.5917 17.4027 39.7039 14.06 39.7039 10.2329C39.7039 4.59054 35.1136 3.05176e-05 29.4712 3.05176e-05Z" fill="#3B4EF2"/>
<path d="M11.5031 9.53796C7.28329 9.53796 3.85034 12.9709 3.85034 17.1907C3.85034 21.4105 7.28329 24.8435 11.5031 24.8435C12.5735 24.8435 13.5928 24.6218 14.5187 24.2232C16.1196 23.534 17.4396 22.3139 18.2564 20.7857C18.8297 19.7131 19.1559 18.4894 19.1559 17.1907C19.1559 12.971 15.7229 9.53796 11.5031 9.53796Z" fill="#3B4EF2"/>
<path d="M47.4401 9.53796C43.2203 9.53796 39.7874 12.9709 39.7874 17.1907C39.7874 18.4895 40.1135 19.7132 40.6868 20.7857C41.5036 22.314 42.8236 23.5341 44.4245 24.2232C45.3504 24.6218 46.3697 24.8435 47.4401 24.8435C51.6599 24.8435 55.0929 21.4105 55.0929 17.1907C55.0929 12.9709 51.6599 9.53796 47.4401 9.53796Z" fill="#3B4EF2"/>
</svg>
